# xmcd
#
# Track frame offsets:
#   150
#   17439
#   33639
#   50546
#   68907
#   87121
#   101760
#   123762
#   138913
#   156966
#   172686
#   191457
#   207416
#   227680
#   253547
#
# Disc length: 3422 seconds
#
# Revision: 0
# Processed by: cddbd v1.5.1PL0 Copyright (c) Steve Scherf et al.
# Submitted via: uFREEDB ActiveX Control 1.5
#
DISCID=be0d5c0f
DTITLE=Tchê Garotos - Tchê Garotos na Veia
DYEAR=2004
DGENRE=Alternative
TTITLE0=Saudades do Jackson do Pandeiro
TTITLE1=Pimentinha
TTITLE2=E aí cabeca
TTITLE3=Criado Tipo Bicho
TTITLE4=Iemanjá
TTITLE5=Muié só quer Dinheiro
TTITLE6=Evidências
TTITLE7=Tchê Garotos na Veia
TTITLE8=História Perfeita
TTITLE9=Balanço Bom Demais
TTITLE10=Química do Amor
TTITLE11=Ventos que Sopram
TTITLE12=Ventos que Sopram
TTITLE13=Quero Ver meu Amor
TTITLE14=
EXTD=
EXTT0=
EXTT1=
EXTT2=
EXTT3=
EXTT4=
EXTT5=
EXTT6=
EXTT7=
EXTT8=
EXTT9=
EXTT10=
EXTT11=
EXTT12=
EXTT13=
EXTT14=
PLAYORDER=
